<?xml version="1.0" standalone="no"?>
<!DOCTYPE svg PUBLIC "-//W3C//DTD SVG 20010904//EN"
 "http://www.w3.org/TR/2001/REC-SVG-20010904/DTD/svg10.dtd">
<svg version="1.0" xmlns="http://www.w3.org/2000/svg"
 width="424.000000pt" height="424.000000pt" viewBox="0 0 424.000000 424.000000"
 preserveAspectRatio="xMidYMid meet">
<metadata>
Created by potrace 1.14, written by Peter Selinger 2001-2017
</metadata>
<g transform="translate(0.000000,424.000000) scale(0.100000,-0.100000)"
fill="#000000" stroke="none">
<path d="M2035 4233 c-103 -4 -247 -22 -355 -45 -193 -41 -455 -137 -466 -170
-9 -28 -2 -31 65 -23 45 5 58 10 54 21 -8 22 24 28 65 11 36 -14 39 -14 50 4
10 16 20 18 65 13 28 -3 56 -10 61 -15 6 -5 18 -9 27 -9 9 0 22 -7 29 -15 9
-11 33 -15 91 -15 63 0 80 -3 88 -17 8 -15 11 -12 24 17 13 30 15 32 16 12 2
-38 24 -19 28 23 5 45 13 60 13 24 0 -19 7 -27 33 -34 22 -7 31 -15 29 -27 -2
-10 1 -18 7 -18 5 0 16 -3 25 -6 13 -5 16 1 16 29 0 44 26 70 35 35 3 -13 15
-29 26 -36 17 -11 19 -9 19 14 0 32 18 66 31 59 5 -4 9 -21 9 -40 0 -31 20
-52 39 -40 5 2 6 -7 3 -20 -5 -29 -6 -29 47 -10 34 12 41 12 41 1 0 -16 31
-16 42 -1 4 6 5 27 2 48 -4 33 -2 38 20 46 31 12 41 30 22 37 -22 9 -20 24 3
24 36 0 53 -11 40 -26 -9 -11 -6 -16 16 -24 14 -5 35 -10 46 -10 12 0 19 -7
19 -19 0 -33 11 -51 33 -51 16 0 18 -3 9 -12 -16 -16 13 -48 45 -48 12 0 23
-4 23 -10 0 -5 -7 -10 -15 -10 -15 0 -49 -66 -40 -80 6 -9 55 0 55 10 0 5 -7
15 -15 23 -12 13 -10 15 18 20 41 6 50 1 37 -24 -9 -15 -7 -19 7 -19 17 -1 17
-1 1 -14 -24 -17 -23 -24 4 -28 12 -2 23 -9 26 -17 3 -8 0 -11 -6 -7 -15 9
-42 -4 -42 -21 0 -10 7 -14 20 -10 16 4 20 0 20 -17 0 -12 5 -27 12 -34 9 -9
9 -12 -2 -12 -10 0 -9 -4 3 -18 10 -10 17 -24 17 -30 0 -7 9 -17 20 -24 11 -7
20 -19 20 -27 0 -8 3 -11 7 -8 9 9 43 -43 43 -66 0 -10 5 -15 10 -12 6 3 10 2
10 -4 0 -6 7 -8 15 -5 8 4 21 1 29 -5 7 -6 25 -12 40 -13 14 -1 26 -5 26 -9 0
-4 9 -9 20 -12 11 -3 20 -13 20 -22 0 -14 8 -16 58 -11 31 3 75 8 97 11 34 6
44 3 68 -19 15 -14 27 -34 27 -45 0 -11 4 -22 9 -25 5 -4 12 -24 16 -47 5 -29
11 -39 21 -35 9 3 16 -4 20 -22 4 -15 16 -35 28 -44 15 -12 21 -28 21 -60 l0
-43 70 -3 c38 -2 72 -7 75 -11 9 -15 65 -19 113 -10 39 7 52 6 64 -6 19 -19
57 -19 73 0 16 20 34 19 26 -1 -5 -12 -1 -14 17 -8 12 4 25 11 28 17 4 5 10 0
14 -12 4 -13 15 -21 28 -22 77 -2 121 -14 111 -30 -4 -8 -3 -9 4 -5 7 4 12 2
12 -4 0 -6 10 -8 25 -4 16 4 25 2 25 -5 0 -7 16 -19 35 -27 19 -8 35 -21 35
-29 0 -8 7 -15 15 -15 24 0 19 15 -44 144 -59 121 -144 259 -230 371 -64 84
-252 275 -341 348 -251 203 -561 352 -872 420 -149 33 -218 42 -218 28 0 -15
-20 -14 -39 3 -17 14 -150 23 -286 19z m282 -65 c-3 -8 -6 -5 -6 6 -1 11 2 17
5 13 3 -3 4 -12 1 -19z m-37 -155 c0 -30 -3 -44 -10 -37 -8 8 -3 84 6 84 2 0
4 -21 4 -47z m1698 -1001 c2 -7 -3 -12 -12 -12 -9 0 -16 7 -16 16 0 17 22 14
28 -4z"/>
<path d="M1427 3938 c-3 -13 -9 -33 -12 -45 -6 -17 -3 -23 9 -23 12 0 16 10
16 45 0 49 -5 57 -13 23z"/>
<path d="M1256 3921 c-57 -7 -67 -21 -29 -38 29 -14 74 -16 110 -7 21 6 21 7
6 30 -8 13 -20 23 -27 22 -6 0 -33 -4 -60 -7z"/>
<path d="M1261 3839 c18 -11 46 -12 53 -1 3 4 -11 9 -31 9 -25 1 -32 -2 -22
-8z"/>
<path d="M805 3774 c-92 -73 -251 -230 -327 -324 -247 -303 -408 -683 -459
-1080 -15 -121 -15 -377 0 -500 69 -545 328 -1017 761 -1385 82 -70 233 -175
251 -175 5 0 32 11 61 25 28 14 56 25 62 25 5 0 73 31 150 69 221 109 317 153
521 239 105 45 214 93 242 107 29 14 57 25 63 25 10 0 14 13 11 42 -1 10 3 18
8 18 6 0 11 -6 11 -14 0 -7 6 -19 14 -25 12 -10 28 -81 19 -81 -2 0 -12 5 -22
12 -16 9 -53 -4 -232 -82 -275 -119 -638 -270 -651 -270 -14 0 -228 -104 -228
-111 0 -10 222 -116 325 -154 238 -89 467 -129 735 -129 205 0 337 16 523 63
426 108 845 372 1093 688 59 75 64 86 59 117 -8 40 10 57 30 30 12 -17 19 -10
74 76 82 126 171 309 220 452 63 184 118 458 92 458 -6 0 -11 -11 -11 -25 0
-18 -5 -25 -18 -25 -26 0 -46 -41 -37 -78 5 -23 1 -38 -12 -56 -18 -26 -43
-35 -43 -16 0 10 -23 8 -53 -5 -10 -4 -26 -9 -35 -10 -10 -1 -30 -7 -47 -15
-16 -7 -44 -12 -62 -11 -24 1 -33 -3 -38 -19 -6 -19 -16 -24 -42 -21 -12 2
-18 -31 -14 -66 1 -7 -3 -13 -9 -13 -5 0 -10 10 -10 21 0 18 -2 19 -15 9 -8
-7 -15 -20 -15 -28 0 -13 -2 -13 -13 2 -14 19 -23 19 -114 0 -18 -3 -33 -13
-33 -20 0 -8 -8 -15 -17 -16 -24 -2 -31 -3 -75 -12 -24 -4 -38 -13 -38 -22 0
-8 -4 -12 -10 -9 -5 3 -10 0 -10 -7 0 -10 -3 -9 -10 2 -7 12 -18 6 -54 -33
-25 -26 -52 -47 -61 -47 -8 0 -15 -5 -15 -10 0 -6 -16 -20 -35 -31 -23 -14
-35 -28 -35 -43 0 -31 -67 -96 -98 -96 -17 0 -27 -8 -35 -30 -6 -17 -15 -30
-18 -30 -4 0 -4 -13 1 -29 8 -30 2 -75 -15 -102 -6 -9 -30 -19 -54 -22 -44 -5
-46 -4 -102 53 -54 56 -59 58 -75 43 -9 -9 -37 -28 -63 -41 -25 -14 -53 -30
-61 -36 -8 -7 -40 -23 -70 -36 -30 -13 -62 -30 -71 -37 -8 -7 -19 -13 -23 -13
-4 0 -33 -12 -64 -26 -31 -14 -75 -32 -98 -40 -41 -14 -44 -13 -68 9 -14 14
-26 29 -26 35 0 13 35 34 43 26 10 -11 80 -16 86 -7 7 10 96 53 111 53 9 0 30
31 30 44 0 3 -9 6 -20 6 -11 0 -20 -5 -20 -11 0 -5 -4 -8 -10 -4 -5 3 -18 0
-28 -6 -13 -8 -24 -9 -37 -2 -17 10 -12 18 48 78 37 37 67 70 67 74 0 3 11 16
24 28 13 13 31 38 40 57 8 18 23 39 31 46 26 22 49 73 47 105 -1 17 3 46 9 65
6 19 16 109 20 200 21 384 19 363 44 385 22 20 23 25 23 195 0 130 -4 189 -16
230 -8 30 -16 90 -16 132 -1 71 -3 80 -28 103 -16 14 -28 32 -28 40 0 8 -12
21 -27 29 -16 8 -60 45 -100 83 -130 123 -141 133 -193 168 -28 19 -66 39 -85
44 -28 7 -229 131 -245 151 -12 14 -61 40 -75 40 -9 0 -18 7 -21 15 -11 27
-215 115 -267 115 -15 0 -45 9 -66 20 -34 17 -61 19 -210 20 -96 1 -171 6
-171 11 0 5 8 9 18 10 9 0 12 3 5 5 -7 3 -22 0 -35 -7 -13 -7 -29 -12 -37 -10
-8 1 -29 0 -48 -4 -28 -5 -33 -10 -33 -35 0 -30 -52 -90 -78 -90 -7 0 -25 -11
-40 -25 -15 -14 -33 -25 -41 -25 -7 0 -24 -12 -37 -26 -20 -21 -30 -24 -61
-19 -44 7 -50 12 -35 27 6 6 8 18 3 27 -10 21 -2 111 10 111 5 0 9 7 9 15 0
13 28 35 45 35 3 0 3 -11 -1 -25 -4 -15 -2 -25 5 -25 6 0 11 5 11 11 0 5 5 7
10 4 6 -4 8 -11 5 -16 -4 -5 -2 -9 4 -9 19 0 24 23 8 35 -22 16 -22 28 1 22 9
-2 29 3 45 10 23 12 31 11 57 -2 24 -13 33 -13 50 -3 11 7 20 22 20 33 0 12 5
26 12 33 6 6 12 23 14 37 2 20 -1 25 -12 21 -11 -4 -12 -2 -4 13 8 15 5 22
-18 37 -15 10 -39 17 -54 16 -19 -2 -28 2 -28 13 0 8 -7 15 -15 15 -8 0 -15 6
-15 13 0 16 -29 41 -76 66 -19 11 -34 23 -32 28 2 4 -17 11 -42 14 l-45 6 53
1 c35 1 51 6 46 13 -3 6 -15 9 -25 6 -12 -3 -19 0 -19 10 0 8 5 11 10 8 10 -6
27 22 18 30 -2 2 -35 -21 -73 -51z m170 -344 c3 -5 1 -10 -4 -10 -6 0 -11 5
-11 10 0 6 2 10 4 10 3 0 8 -4 11 -10z m-139 -243 c8 3 14 0 14 -7 0 -6 4 -9
9 -6 18 12 -3 -51 -25 -72 -13 -13 -24 -29 -24 -37 0 -8 -4 -15 -9 -15 -6 0
-21 -19 -35 -42 -14 -24 -26 -38 -26 -33 0 6 -5 3 -11 -5 -8 -11 -9 -9 -3 10
l7 25 -24 -20 c-13 -11 -27 -24 -30 -28 -3 -4 -18 2 -32 13 -20 16 -27 31 -27
55 0 18 -6 36 -12 38 -10 4 -9 8 2 16 12 9 13 14 2 31 -10 17 -10 21 4 27 9 3
19 0 24 -6 5 -10 9 -9 13 3 4 9 17 16 30 16 13 0 27 3 31 7 10 11 96 10 96 -1
0 -5 3 -7 6 -4 3 4 0 17 -6 30 -10 18 -10 21 0 11 7 -6 19 -9 26 -6z m-139
-299 c-3 -8 -6 -5 -6 6 -1 11 2 17 5 13 3 -3 4 -12 1 -19z m1476 -225 c-7 -2
-19 -2 -25 0 -7 3 -2 5 12 5 14 0 19 -2 13 -5z m131 -54 c-10 -4 -55 -15 -99
-24 -153 -32 -212 -52 -255 -85 -23 -18 -24 -19 -7 -38 9 -10 17 -21 17 -24 0
-9 -38 -17 -45 -10 -3 4 -27 12 -53 18 -46 12 -51 11 -177 -38 -71 -27 -143
-52 -160 -54 -16 -2 -23 -1 -15 2 8 3 39 16 67 30 29 13 64 26 79 30 14 4 58
22 97 41 l71 35 -32 13 c-17 8 -32 21 -32 30 0 19 59 20 124 3 41 -11 52 -9
172 32 71 24 156 47 189 50 64 6 91 1 59 -11z m72 -16 c20 -27 16 -38 -6 -18
-20 18 -26 35 -14 35 4 0 13 -8 20 -17z m-1779 -35 c-3 -8 -6 -5 -6 6 -1 11 2
17 5 13 3 -3 4 -12 1 -19z m1623 -7 c0 -14 -41 -41 -62 -41 -25 0 -23 16 4 34
25 18 58 21 58 7z m208 -51 c12 -28 22 -57 22 -65 0 -8 5 -15 10 -15 6 0 10
-12 9 -27 0 -16 -3 -21 -6 -13 -6 19 -30 72 -54 124 -22 45 -22 46 -11 46 5 0
18 -23 30 -50z m-1841 -37 c-3 -10 -5 -2 -5 17 0 19 2 27 5 18 2 -10 2 -26 0
-35z m1672 33 c27 -33 -28 -78 -69 -56 -26 14 -25 34 3 53 28 20 51 21 66 3z
m-219 -55 c0 -15 -121 -132 -131 -126 -15 10 -11 21 26 61 19 22 35 42 35 46
0 4 12 14 27 22 27 14 43 13 43 -3z m40 -66 c13 -24 11 -28 -33 -73 -26 -26
-47 -55 -47 -65 0 -20 -13 -22 -28 -4 -8 10 -6 22 9 46 l20 32 -30 -17 c-17
-10 -34 -14 -38 -10 -10 9 100 116 119 116 8 0 21 -11 28 -25z m220 -30 c16
-19 7 -104 -21 -223 -20 -86 -17 -112 17 -112 7 0 22 -13 34 -30 12 -16 27
-30 33 -30 7 0 26 -21 43 -47 27 -40 29 -50 20 -75 l-10 -28 -26 25 c-14 13
-40 30 -58 36 -18 6 -32 15 -32 20 0 5 -5 9 -11 9 -8 0 -8 -4 0 -14 9 -11 9
-19 -1 -35 -7 -12 -18 -21 -24 -21 -24 0 -64 -43 -75 -81 -8 -26 -17 -38 -25
-35 -8 3 -16 1 -19 -4 -4 -6 -16 -10 -29 -10 -36 0 -138 152 -116 174 25 25
87 -38 104 -107 13 -55 44 -12 44 63 l0 35 -14 -33 c-16 -37 -28 -35 -49 11
-9 18 -22 43 -30 57 -14 24 -13 25 23 38 20 7 51 12 67 10 26 -3 30 1 33 24 3
23 -2 30 -23 38 -15 6 -29 19 -32 30 -3 11 -9 20 -13 20 -4 0 -18 9 -31 21
-13 12 -45 39 -71 62 -27 22 -48 48 -48 56 0 10 14 1 37 -23 21 -21 54 -51 73
-65 19 -14 40 -32 45 -39 10 -13 65 -8 65 5 0 10 -92 92 -134 120 -28 19 -36
28 -25 31 16 3 39 -14 125 -91 24 -22 49 -37 55 -35 21 7 48 92 48 155 1 64
14 113 30 113 4 0 14 -7 21 -15z m196 -20 c20 -50 17 -57 -6 -11 -22 43 -23
46 -14 46 3 0 12 -16 20 -35z m-1026 5 c-8 -5 -24 -9 -35 -9 -16 1 -16 2 5 9
35 11 48 11 30 0z m-880 -57 c0 -32 -3 -43 -9 -34 -5 7 -7 21 -6 30 2 9 4 24
4 34 1 9 3 17 6 17 3 0 5 -21 5 -47z m785 27 c-11 -5 -27 -9 -35 -9 -9 0 -8 4
5 9 11 5 27 9 35 9 9 0 8 -4 -5 -9z m-72 -27 c-7 -2 -19 -2 -25 0 -7 3 -2 5
12 5 14 0 19 -2 13 -5z m-73 -17 c0 -2 -29 -13 -65 -25 -36 -12 -77 -29 -93
-37 -15 -7 -34 -14 -42 -14 -15 0 33 24 105 53 49 19 95 31 95 23z m1357 -150
c42 -110 52 -150 53 -198 0 -44 -8 -68 -24 -68 -8 0 -11 19 -8 63 4 64 -6 104
-62 251 -29 76 -35 118 -10 72 9 -16 32 -70 51 -120z m-2000 -68 c-2 -29 -3
-8 -3 47 0 55 1 79 3 53 2 -26 2 -71 0 -100z m844 -22 c-27 -32 -68 -263 -51
-280 7 -7 10 -3 10 10 0 11 11 42 25 70 15 27 23 41 20 31 -3 -10 -8 -37 -11
-60 -4 -23 -11 -50 -16 -60 -7 -14 -1 -26 29 -55 21 -21 53 -49 71 -62 18 -14
49 -39 69 -57 33 -29 35 -33 20 -47 -15 -15 -19 -14 -51 16 -65 61 -165 128
-167 111 -1 -17 -8 -40 -22 -83 -9 -25 -19 -62 -22 -82 -5 -24 -13 -38 -22
-38 -13 0 -14 8 -8 48 4 26 10 68 14 95 4 26 12 52 18 58 8 8 6 19 -6 40 -9
16 -18 29 -21 29 -10 0 -114 81 -152 118 -37 35 -49 62 -28 62 6 0 10 7 10 15
0 8 3 15 6 15 3 0 48 -36 100 -81 62 -53 96 -76 99 -67 2 7 16 65 30 127 24
110 53 181 63 153 2 -7 -1 -19 -7 -26z m45 -58 c-10 -33 -14 -40 -11 -19 3 18
5 47 5 64 0 23 3 28 11 20 9 -9 8 -25 -5 -65z m544 22 c0 -5 -7 -10 -16 -10
-8 0 -12 5 -9 10 3 6 10 10 16 10 5 0 9 -4 9 -10z m-1420 -65 c0 -14 -4 -25
-9 -25 -4 0 -6 11 -3 25 2 14 6 25 8 25 2 0 4 -11 4 -25z m1244 -47 c52 -61
47 -128 -6 -70 -38 41 -60 82 -54 98 9 23 22 17 60 -28z m-397 10 c-3 -8 -6
-5 -6 6 -1 11 2 17 5 13 3 -3 4 -12 1 -19z m-847 -23 c0 -8 -4 -15 -10 -15 -5
0 -7 7 -4 15 4 8 8 15 10 15 2 0 4 -7 4 -15z m2 -37 c-9 -9 -9 -15 0 -27 10
-13 8 -13 -6 1 -18 16 -15 38 7 38 8 0 8 -3 -1 -12z m-32 -37 c0 -5 6 -11 13
-13 11 -2 10 -11 -4 -43 -17 -36 -19 -37 -19 -13 0 14 -6 29 -12 31 -10 4 -9
8 2 16 11 8 12 11 2 11 -7 0 -10 5 -7 10 8 13 25 13 25 1z m78 -66 c2 -17 8
-35 13 -41 5 -6 17 -37 28 -68 14 -43 15 -56 5 -56 -7 0 -16 10 -19 23 -12 38
-34 67 -49 61 -12 -4 -12 -10 -1 -32 16 -33 9 -82 -13 -82 -17 0 -7 -15 11
-15 7 0 11 -13 10 -28 -1 -15 3 -27 9 -27 6 0 9 -3 5 -6 -8 -8 56 -74 72 -74
13 0 14 2 1 34 -6 16 -6 27 0 31 6 4 10 17 10 31 0 13 4 24 8 24 10 0 37 -69
35 -88 0 -7 1 -11 4 -8 24 23 124 -206 117 -266 -3 -19 2 -35 11 -42 14 -10
21 -44 28 -131 2 -24 -2 -31 -20 -33 -14 -2 -23 2 -23 10 0 7 -5 5 -12 -6 -9
-15 -7 -22 8 -33 16 -12 14 -13 -22 -13 -33 0 -41 4 -52 28 -6 16 -10 42 -9
59 3 21 -3 36 -19 52 -13 13 -24 28 -24 33 0 6 -12 24 -26 42 -22 25 -26 27
-20 9 6 -18 4 -22 -8 -17 -9 3 -16 11 -16 17 0 17 -71 77 -92 77 -10 0 -18 3
-18 8 -1 4 -3 32 -6 62 -11 136 -11 165 -1 172 7 4 11 51 10 132 -2 127 4 150
33 122 21 -22 24 -20 24 14 0 23 -4 30 -20 30 -20 0 -26 11 -13 24 16 15 38
-1 41 -29z m349 -67 c-3 -7 -5 -2 -5 12 0 14 2 19 5 13 2 -7 2 -19 0 -25z
m1542 -52 c8 -10 9 -37 2 -95 -7 -66 -14 -88 -37 -119 -37 -47 -54 -80 -54
-101 0 -23 -43 -80 -77 -101 -15 -10 -45 -34 -67 -54 -21 -20 -42 -36 -46 -36
-4 0 -31 -16 -60 -36 -28 -19 -57 -33 -63 -31 -7 3 4 12 24 21 20 8 51 30 68
47 27 27 31 36 25 63 -8 41 -9 41 -38 22 -14 -9 -49 -25 -78 -37 -29 -11 -59
-25 -66 -31 -7 -6 -27 -12 -45 -13 -50 -4 -109 -22 -118 -37 -5 -7 -3 -21 5
-33 11 -16 26 -21 79 -23 63 -3 67 -2 73 22 l6 25 21 -20 c30 -28 10 -39 -75
-39 -51 0 -69 -4 -76 -16 -8 -15 -12 -15 -42 1 -22 12 -29 19 -21 25 7 4 11
18 9 31 -2 18 -10 25 -32 27 l-28 4 22 15 c18 13 21 22 17 49 -7 44 -1 43 18
-2 12 -30 19 -35 37 -31 13 3 39 10 58 15 35 8 35 9 34 60 -1 28 2 49 7 46 5
-3 9 -11 9 -17 0 -7 7 -22 15 -34 14 -20 16 -20 62 -5 124 39 139 55 103 104
-29 40 -19 47 13 8 32 -38 45 -38 85 1 39 38 40 49 7 73 -26 20 -32 40 -15 51
5 3 15 -5 21 -19 14 -30 44 -42 64 -26 20 17 20 70 0 70 -8 0 -15 5 -15 10 0
13 23 13 37 -1 7 -7 15 -5 27 6 22 22 20 30 -10 58 -17 16 -22 27 -15 31 14 9
31 -1 31 -20 0 -24 20 -16 31 12 7 21 6 31 -7 45 -16 17 -13 24 9 20 4 -1 10
6 13 14 8 19 38 20 53 1z m-1972 -18 c-3 -8 -6 -5 -6 6 -1 11 2 17 5 13 3 -3
4 -12 1 -19z m1463 -129 c0 -14 -30 -38 -47 -39 -19 0 -16 27 5 39 23 14 42
14 42 0z m140 -11 c-1 -35 -44 -100 -98 -148 l-61 -54 -63 3 c-35 1 -67 7 -73
13 -7 7 1 9 28 5 37 -6 114 14 150 38 29 20 67 77 78 117 9 35 39 55 39 26z
m-1040 -84 c0 -2 -7 -4 -15 -4 -8 0 -15 4 -15 10 0 5 7 7 15 4 8 -4 15 -8 15
-10z m1135 7 c3 -5 -4 -13 -16 -16 -23 -8 -34 -1 -24 14 8 13 32 14 40 2z
m-913 -124 c23 -23 76 -57 87 -57 6 0 11 11 11 25 0 35 17 31 25 -6 6 -26 11
-30 31 -26 20 3 23 1 18 -17 -4 -19 3 -26 45 -45 59 -28 88 -23 71 11 l-11 23
20 -22 c24 -28 33 -29 56 -3 27 30 39 24 16 -8 -24 -34 -14 -57 20 -48 l24 6
-22 -11 c-47 -25 -12 -58 61 -59 l49 0 -24 -19 c-29 -22 -69 -18 -95 10 -9 10
-23 19 -31 19 -7 0 -13 6 -13 13 0 6 -5 4 -11 -5 -16 -28 -39 -22 -39 10 0 24
-4 27 -36 29 -19 1 -41 7 -48 13 -8 5 -20 8 -29 4 -10 -3 -22 4 -32 20 -10 14
-26 26 -36 26 -11 0 -19 4 -19 9 0 4 -17 20 -37 33 -21 14 -46 40 -56 57 -19
33 -17 40 5 18z m-386 -243 c21 -50 12 -52 -15 -4 -13 23 -17 40 -11 40 6 0
18 -16 26 -36z m1158 -74 c-7 -6 -24 22 -23 40 0 9 6 5 14 -10 7 -14 11 -27 9
-30z m1626 -24 c0 -7 -9 -16 -20 -19 -25 -6 -26 8 -2 22 22 13 22 13 22 -3z
m-1420 -306 c25 -25 28 -129 5 -183 -8 -20 -15 -48 -15 -61 0 -14 -11 -49 -24
-78 -14 -29 -28 -65 -31 -80 -7 -35 -13 -35 -53 2 -18 17 -37 30 -43 30 -5 0
-26 15 -46 33 -21 18 -60 44 -87 57 -54 28 -146 107 -146 126 0 8 19 15 48 19
126 15 204 41 248 83 29 27 97 71 112 71 6 1 21 -8 32 -19z"/>
<path d="M2184 2049 c-3 -6 -1 -16 5 -22 8 -8 11 -5 11 11 0 24 -5 28 -16 11z"/>
<path d="M2250 1986 c0 -8 18 -29 41 -47 22 -19 55 -46 73 -61 37 -31 46 -34
45 -15 -1 10 -22 31 -133 125 -19 16 -26 15 -26 -2z"/>
<path d="M1150 1869 c0 -15 79 -99 94 -99 4 0 14 -7 22 -15 9 -8 20 -15 25
-15 5 0 -5 14 -23 31 -18 17 -52 50 -75 72 -27 26 -43 35 -43 26z"/>
<path d="M823 1251 c-10 -15 -9 -22 2 -31 13 -11 15 -7 15 19 0 36 -1 37 -17
12z"/>
<path d="M2464 1416 c-3 -14 -10 -26 -15 -26 -5 0 -9 -9 -9 -20 0 -11 4 -20 8
-20 10 0 36 80 28 87 -3 3 -8 -6 -12 -21z"/>
<path d="M2390 1324 c0 -9 5 -14 12 -12 18 6 21 28 4 28 -9 0 -16 -7 -16 -16z"/>
<path d="M2330 1265 c-19 -19 -37 -35 -42 -35 -15 0 -30 -41 -19 -54 6 -7 8
-16 4 -19 -3 -4 3 -7 14 -7 27 0 125 113 117 134 -10 25 -36 18 -74 -19z"/>
<path d="M2935 3371 c-15 -14 0 -21 45 -21 38 0 50 4 50 15 0 12 -10 15 -45
14 -25 -2 -48 -5 -50 -8z"/>
<path d="M920 3280 c0 -19 11 -26 23 -14 8 8 -3 34 -14 34 -5 0 -9 -9 -9 -20z"/>
<path d="M3186 3081 c-25 -26 -29 -60 -5 -46 5 4 9 2 9 -3 0 -5 29 -9 65 -9
36 0 65 4 65 9 0 4 -11 8 -25 8 -28 0 -65 32 -65 55 0 22 -13 18 -44 -14z"/>
<path d="M3410 2858 c0 -4 21 -8 46 -8 28 0 43 4 39 10 -8 12 -85 10 -85 -2z"/>
<path d="M2814 2635 c-8 -21 2 -32 35 -37 27 -4 28 -3 19 18 -12 27 -47 38
-54 19z"/>
<path d="M2775 2570 c-3 -5 -1 -10 4 -10 6 0 11 5 11 10 0 6 -2 10 -4 10 -3 0
-8 -4 -11 -10z"/>
<path d="M2570 1004 c0 -8 5 -12 10 -9 6 3 10 10 10 16 0 5 -4 9 -10 9 -5 0
-10 -7 -10 -16z"/>
</g>
</svg>
